<svg xmlns="http://www.w3.org/2000/svg" width="44.119" height="28.076" viewBox="0 0 44.119 28.076">
  <path id="ic_group_24px" d="M31.081,17.033a6.016,6.016,0,1,0-6.016-6.016A5.991,5.991,0,0,0,31.081,17.033Zm-16.043,0a6.016,6.016,0,1,0-6.016-6.016A5.991,5.991,0,0,0,15.038,17.033Zm0,4.011C10.365,21.043,1,23.39,1,28.062v5.014H29.076V28.062C29.076,23.39,19.711,21.043,15.038,21.043Zm16.043,0c-.582,0-1.243.04-1.945.1,2.326,1.685,3.951,3.951,3.951,6.919v5.014H45.119V28.062C45.119,23.39,35.754,21.043,31.081,21.043Z" transform="translate(-1 -5)" fill="#0074bb"/>
</svg>
